<svg width="45" height="52" viewBox="0 0 45 52" fill="none" xmlns="http://www.w3.org/2000/svg">
<path d="M35.3571 12.8198C35.3571 19.9007 29.6016 25.6395 22.4096 25.6395C15.3984 25.6395 9.55245 19.9007 9.55245 12.8198C9.55245 5.73985 15.3984 0 22.4096 0C29.6016 0 35.3571 5.73985 35.3571 12.8198ZM28.8382 36.2559C26.1562 36.967 24.0167 39.4809 24.0167 42.4655V44.8692C24.0167 45.2898 24.2779 45.7005 24.5792 46.0009L26.1864 47.6034C26.8092 48.2344 27.8337 48.2344 28.4565 47.6034C29.0893 46.9824 29.0893 45.9609 28.4565 45.3399L27.231 44.2082V42.4655C27.231 40.6927 28.7578 39.2605 30.4453 39.2605C32.3136 39.2605 33.75 40.6927 33.75 42.4655V44.2082L32.615 45.3399C31.9821 45.9609 31.9821 46.9824 32.615 47.6034C33.2377 48.2344 34.2623 48.2344 34.885 47.6034L36.4922 46.0009C36.7935 45.7005 36.9643 45.2898 36.9643 44.8692V42.4655C36.9643 39.4809 34.9152 36.967 32.1429 36.2559V30.9277C39.5257 32.7205 45 39.2706 45 47.2729V48.0741C45 49.8469 43.5636 51.2791 41.7857 51.2791H3.21429C1.4394 51.2791 0 49.8469 0 48.0741V47.2729C0 39.3607 5.47734 32.7205 12.8571 30.9277V37.0872C10.5368 37.7783 8.83929 39.9216 8.83929 42.4655C8.83929 45.5603 11.3605 48.0741 14.4643 48.0741C17.5681 48.0741 20.0893 45.5603 20.0893 42.4655C20.0893 39.9216 18.3917 37.7783 16.0714 37.0872V30.467C16.3426 30.457 16.6038 30.4469 16.875 30.4469H28.125C28.3962 30.4469 28.6574 30.457 28.9286 30.467L28.8382 36.2559ZM16.7846 42.4655C16.7846 43.7975 15.8002 44.8692 14.3739 44.8692C13.1283 44.8692 11.9632 43.7975 11.9632 42.4655C11.9632 41.1334 13.1283 40.0618 14.3739 40.0618C15.8002 40.0618 16.7846 41.1334 16.7846 42.4655Z" fill="white"/>
</svg>
