<svg width="45" height="41" viewBox="0 0 45 41" fill="none" xmlns="http://www.w3.org/2000/svg">
<path d="M39.986 22.4697L40.0407 34.978C40.0485 37.7516 37.8063 40.0017 35.0405 40.0017H10.0082C7.2464 40.0017 5.00724 37.7594 5.00724 35.0015V22.4697H2.50401C1.09536 22.4697 0 21.3681 0 19.9618C0 19.2586 0.234697 18.6336 0.782064 18.0867L20.8134 0.626276C21.3603 0.0782845 21.9853 0 22.5322 0C23.0791 0 23.7041 0.156569 24.1807 0.547991L32.5014 7.86751V5.00021C32.5014 3.61968 33.6186 2.5001 35.0015 2.5001H37.5016C38.8844 2.5001 40.0017 3.61968 40.0017 5.00021V14.4537L44.1268 18.0867C44.7519 18.6336 45.0722 19.2586 44.9862 19.9618C44.9862 21.3681 43.8143 22.4697 42.4861 22.4697H39.986ZM31.2513 19.3758C31.2513 18.6883 30.6888 18.1258 30.0012 18.1258H25.6261V13.7506C25.6261 13.063 25.0635 12.5005 24.376 12.5005H20.6259C19.9383 12.5005 19.3758 13.063 19.3758 13.7506V18.1258H15.0006C14.3131 18.1258 13.7506 18.6883 13.7506 19.3758V23.126C13.7506 23.8135 14.3131 24.376 15.0006 24.376H19.3758V28.7512C19.3758 29.4387 19.9383 30.0012 20.6259 30.0012H24.376C25.0635 30.0012 25.6261 29.4387 25.6261 28.7512V24.376H30.0012C30.6888 24.376 31.2513 23.8135 31.2513 23.126V19.3758Z" fill="white"/>
</svg>
