<svg width="45" height="52" viewBox="0 0 45 52" fill="none" xmlns="http://www.w3.org/2000/svg">
<g clip-path="url(#clip0_32_116)">
<path d="M45 33.75V4.82143C45 2.15859 42.8404 0 40.1786 0H9.64286C4.31719 0 0 4.31719 0 9.64286V41.7857C0 47.1114 4.31719 51.4286 9.64286 51.4286H41.7857C43.5606 51.4286 45 49.9892 45 48.3047C45 47.1275 44.3363 46.1431 43.3929 45.5826V37.4103C44.3772 36.442 45 35.1763 45 33.75ZM12.8571 16.6741C12.8571 15.7864 13.5767 15.067 14.4643 15.067H19.798V9.64286C19.798 8.75511 20.5176 8.03572 21.4051 8.03572H26.6283C27.5159 8.03572 28.2355 8.75511 28.2355 9.64286V15.067H33.75C34.6375 15.067 35.3571 15.7864 35.3571 16.6741V21.8973C35.3571 22.7849 34.6375 23.5045 33.75 23.5045H28.3259V28.9286C28.3259 29.8161 27.6063 30.5357 26.7188 30.5357H21.4955C20.608 30.5357 19.8884 29.8161 19.8884 28.9286V23.5045H14.4643C13.5767 23.5045 12.8571 22.7849 12.8571 21.8973V16.6741ZM38.5714 45H9.64286C7.86797 45 6.42857 43.5606 6.42857 41.7857C6.42857 40.0108 7.86797 38.5714 9.64286 38.5714H38.5714V45Z" fill="white"/>
</g>
<defs>
<clipPath id="clip0_32_116">
<rect width="45" height="51.4286" fill="white"/>
</clipPath>
</defs>
</svg>
